<svg version="1" xmlns="http://www.w3.org/2000/svg" width="613.333" height="613.333" viewBox="0 0 460.000000 460.000000"><path d="M203.5 32.6c-8.3 1.2-13.3 2-17.5 2.9-4.3.8-19.3 5.1-24.5 7-6.3 2.3-7.9 2.8-8.5 2.9-.9.2-23.4 11.6-25.5 12.8-20.1 12.8-27.5 18.6-40 31.2-12 12.2-15.2 16.1-24.4 29.6-7.3 10.6-19.2 33.1-19.8 37.3-.2 1-1.1 3.4-2.2 5.5-1 2-2.4 5.9-3 8.7-1.9 7.4-1.9 7.4-4 15-1 3.8-2.2 10.1-2.6 14-.4 3.8-.9 7.3-1.2 7.8-1.1 1.8-1.3 34.7-.3 43.2.6 4.9 1.3 11.2 1.6 14 .3 2.7 1.2 7.5 2.1 10.5.9 3 1.8 6.2 1.9 7 .5 3.3 3.5 13.5 5.5 18.3 1.2 2.9 2.8 7 3.7 9.2 2.2 5.4 11.5 23.4 14.6 28.2 3.5 5.3 6.9 10.2 8.1 11.6.6.7 2.3 3 4 5.2 1.6 2.2 3.9 5.1 5 6.4 2.3 2.7 20.5 20.8 23.3 23.1 11.2 9.4 23.6 17.6 37.2 24.7 9.4 4.9 23.8 10.9 25.3 10.5.4-.1.7.3.7.8 0 .6.6 1 1.4 1 .8 0 7.1 1.6 14 3.5 7 1.9 15 3.7 17.9 4 2.8.3 8.6 1 12.7 1.5 8.9 1.2 31.6 1.1 41.5-.2 3.9-.4 9.1-1.1 11.7-1.4 3.7-.5 19.1-4.3 31.8-7.9 2.4-.6 16.1-6.3 21-8.7 10.3-4.8 26.1-14.6 35.5-21.7 13.1-10 33.8-30.8 37.9-38 .5-.9 1.2-1.8 1.6-2.1.6-.4 4-5.4 7.5-10.9 10-15.8 16.4-29.5 22.9-49.3 2.3-6.9 4.5-16.9 6.2-27.3.3-2.2.8-4.3 1-4.7.2-.3.7-6.8 1-14.4.3-7.6.6-14 .6-14.3 0-.4 0-.8-.1-1.1-.1-.3-.4-4.8-.6-10-1-27.8-11.5-62.5-26.3-87.5-4.9-8.2-10.1-16-12.4-18.5-1-1.1-1.6-2-1.3-2 .3 0-2.4-3.5-6.1-7.8-6.7-7.9-25.3-26.2-26.6-26.2-.4 0-1.8-1-3.1-2.3-5.4-5.1-35.1-23.7-37.8-23.7-.5 0-3.8-1.3-7.2-2.8-12.7-5.8-29.6-10.7-49.7-14.3-8.7-1.6-44.5-1.8-54.5-.3z"/></svg>